<?xml version="1.0" encoding="UTF-8" standalone="no"?>
<!DOCTYPE svg PUBLIC "-//W3C//DTD SVG 1.1//EN"
 "http://www.w3.org/Graphics/SVG/1.1/DTD/svg11.dtd">
<!-- Generated by graphviz version 2.38.0 (20140413.2041)
 -->
<!-- Title: G Pages: 1 -->
<svg width="421pt" height="330pt"
 viewBox="0.00 0.00 421.00 330.00" xmlns="http://www.w3.org/2000/svg" xmlns:xlink="http://www.w3.org/1999/xlink">
<g id="graph0" class="graph" transform="scale(1 1) rotate(0) translate(4 326)">
<title>G</title>
<polygon fill="white" stroke="none" points="-4,4 -4,-326 417,-326 417,4 -4,4"/>
<g id="clust1" class="cluster"><title>cluster_Global</title>
<path fill="none" stroke="gray" d="M20,-8C20,-8 393,-8 393,-8 399,-8 405,-14 405,-20 405,-20 405,-302 405,-302 405,-308 399,-314 393,-314 393,-314 20,-314 20,-314 14,-314 8,-308 8,-302 8,-302 8,-20 8,-20 8,-14 14,-8 20,-8"/>
<text text-anchor="middle" x="206.5" y="-301.2" font-family="Times,serif" font-size="11.00" fill="gray">Global</text>
</g>
<g id="clust2" class="cluster"><title>cluster_\Picqer</title>
<path fill="none" stroke="gray" d="M28,-16C28,-16 385,-16 385,-16 391,-16 397,-22 397,-28 397,-28 397,-274 397,-274 397,-280 391,-286 385,-286 385,-286 28,-286 28,-286 22,-286 16,-280 16,-274 16,-274 16,-28 16,-28 16,-22 22,-16 28,-16"/>
<text text-anchor="middle" x="206.5" y="-273.2" font-family="Times,serif" font-size="11.00" fill="gray">Picqer</text>
</g>
<g id="clust3" class="cluster"><title>cluster_\Picqer\Barcode</title>
<path fill="none" stroke="gray" d="M36,-24C36,-24 377,-24 377,-24 383,-24 389,-30 389,-36 389,-36 389,-246 389,-246 389,-252 383,-258 377,-258 377,-258 36,-258 36,-258 30,-258 24,-252 24,-246 24,-246 24,-36 24,-36 24,-30 30,-24 36,-24"/>
<text text-anchor="middle" x="206.5" y="-245.2" font-family="Times,serif" font-size="11.00" fill="gray">Barcode</text>
</g>
<!-- \\Picqer\\Barcode\\BarcodeGeneratorJPG -->
<g id="node1" class="node"><title>\\Picqer\\Barcode\\BarcodeGeneratorJPG</title>
<polygon fill="none" stroke="black" points="377.5,-230 232.5,-230 232.5,-194 377.5,-194 377.5,-230"/>
<text text-anchor="middle" x="305" y="-209.2" font-family="Courier,monospace" font-size="11.00">BarcodeGeneratorJPG</text>
</g>
<!-- \\Picqer\\Barcode\\BarcodeGenerator -->
<g id="node4" class="node"><title>\\Picqer\\Barcode\\BarcodeGenerator</title>
<polygon fill="none" stroke="black" points="157,-149 32,-149 32,-113 157,-113 157,-149"/>
<text text-anchor="start" x="60.5" y="-134.2" font-family="Courier,monospace" font-size="11.00">«abstract»</text>
<text text-anchor="start" x="40" y="-122.2" font-family="Courier,monospace" font-size="11.00">BarcodeGenerator</text>
</g>
<!-- \\Picqer\\Barcode\\BarcodeGeneratorJPG&#45;&gt;\\Picqer\\Barcode\\BarcodeGenerator -->
<g id="edge1" class="edge"><title>\\Picqer\\Barcode\\BarcodeGeneratorJPG&#45;&gt;\\Picqer\\Barcode\\BarcodeGenerator</title>
<path fill="none" stroke="black" d="M253.068,-193.966C244.997,-191.021 236.756,-187.964 229,-185 202.3,-174.798 172.823,-162.939 148.374,-152.937"/>
<polygon fill="none" stroke="black" points="149.502,-149.617 138.922,-149.06 146.846,-156.093 149.502,-149.617"/>
</g>
<!-- \\Picqer\\Barcode\\BarcodeGeneratorSVG -->
<g id="node2" class="node"><title>\\Picqer\\Barcode\\BarcodeGeneratorSVG</title>
<polygon fill="none" stroke="black" points="377.5,-176 232.5,-176 232.5,-140 377.5,-140 377.5,-176"/>
<text text-anchor="middle" x="305" y="-155.2" font-family="Courier,monospace" font-size="11.00">BarcodeGeneratorSVG</text>
</g>
<!-- \\Picqer\\Barcode\\BarcodeGeneratorSVG&#45;&gt;\\Picqer\\Barcode\\BarcodeGenerator -->
<g id="edge2" class="edge"><title>\\Picqer\\Barcode\\BarcodeGeneratorSVG&#45;&gt;\\Picqer\\Barcode\\BarcodeGenerator</title>
<path fill="none" stroke="black" d="M232.246,-148.708C211.291,-145.995 188.39,-143.029 167.425,-140.314"/>
<polygon fill="none" stroke="black" points="167.672,-136.817 157.305,-139.004 166.773,-143.759 167.672,-136.817"/>
</g>
<!-- \\Picqer\\Barcode\\BarcodeGeneratorHTML -->
<g id="node3" class="node"><title>\\Picqer\\Barcode\\BarcodeGeneratorHTML</title>
<polygon fill="none" stroke="black" points="381,-122 229,-122 229,-86 381,-86 381,-122"/>
<text text-anchor="middle" x="305" y="-101.2" font-family="Courier,monospace" font-size="11.00">BarcodeGeneratorHTML</text>
</g>
<!-- \\Picqer\\Barcode\\BarcodeGeneratorHTML&#45;&gt;\\Picqer\\Barcode\\BarcodeGenerator -->
<g id="edge3" class="edge"><title>\\Picqer\\Barcode\\BarcodeGeneratorHTML&#45;&gt;\\Picqer\\Barcode\\BarcodeGenerator</title>
<path fill="none" stroke="black" d="M228.727,-113.748C208.761,-116.333 187.256,-119.118 167.471,-121.68"/>
<polygon fill="none" stroke="black" points="166.766,-118.242 157.299,-122.997 167.665,-125.184 166.766,-118.242"/>
</g>
<!-- \\Picqer\\Barcode\\BarcodeGeneratorPNG -->
<g id="node5" class="node"><title>\\Picqer\\Barcode\\BarcodeGeneratorPNG</title>
<polygon fill="none" stroke="black" points="377.5,-68 232.5,-68 232.5,-32 377.5,-32 377.5,-68"/>
<text text-anchor="middle" x="305" y="-47.2" font-family="Courier,monospace" font-size="11.00">BarcodeGeneratorPNG</text>
</g>
<!-- \\Picqer\\Barcode\\BarcodeGeneratorPNG&#45;&gt;\\Picqer\\Barcode\\BarcodeGenerator -->
<g id="edge4" class="edge"><title>\\Picqer\\Barcode\\BarcodeGeneratorPNG&#45;&gt;\\Picqer\\Barcode\\BarcodeGenerator</title>
<path fill="none" stroke="black" d="M253.068,-68.0341C244.997,-70.9788 236.756,-74.0364 229,-77 202.3,-87.2016 172.823,-99.0609 148.374,-109.063"/>
<polygon fill="none" stroke="black" points="146.846,-105.907 138.922,-112.94 149.502,-112.383 146.846,-105.907"/>
</g>
</g>
</svg>
